<svg width="14" height="14" fill="none" xmlns="http://www.w3.org/2000/svg"><path fill-rule="evenodd" clip-rule="evenodd" d="M1.6634 6.33c0-2.5773 2.0894-4.6666 4.6667-4.6666 2.5773 0 4.6666 2.0893 4.6666 4.6667 0 1.2572-.4972 2.3984-1.3056 3.2375a.672.672 0 0 0-.1235.1235c-.8391.8085-1.9803 1.3056-3.2375 1.3056-2.5774 0-4.6667-2.0893-4.6667-4.6666Zm8.4118 4.688a5.9747 5.9747 0 0 1-3.7451 1.3121c-3.3137 0-6-2.6863-6-6s2.6863-6 6-6 6 2.6863 6 6a5.9746 5.9746 0 0 1-1.3121 3.7451l2.4501 2.4501a.6667.6667 0 1 1-.9428.9429l-2.4501-2.4502Z" fill="#2D3440"/></svg>